<svg width="25" height="22" viewBox="0 0 25 22" fill="none" xmlns="http://www.w3.org/2000/svg">
<path d="M24.7046 21.5159C16.7047 21.5159 8.71669 21.5159 0.71685 21.5159C0.705033 21.5043 0.693218 21.5043 0.681401 21.4927C0.551419 21.4463 0.468701 21.3536 0.421435 21.226C0.409618 21.2028 0.40962 21.1913 0.385986 21.1681C0.385986 21.1101 0.385986 21.0637 0.385986 21.0057C0.397803 20.9942 0.409625 20.971 0.409625 20.9594C0.433258 20.913 0.456888 20.8666 0.480521 20.8202C0.811386 20.2521 1.14226 19.684 1.48494 19.1275C1.91034 18.397 2.33574 17.6782 2.76113 16.9478C3.31652 15.997 3.88371 15.0463 4.43909 14.0956C4.97084 13.1913 5.50258 12.2985 6.02251 11.3942C6.57789 10.4434 7.1451 9.48111 7.71229 8.53038C8.22041 7.67241 8.72851 6.81444 9.23663 5.94488C9.80382 4.99415 10.3592 4.03183 10.9264 3.08111C11.3872 2.2927 11.8481 1.51589 12.309 0.727485C12.3799 0.611543 12.4744 0.518789 12.6044 0.484006C12.6162 0.484006 12.6162 0.472412 12.628 0.472412C12.6871 0.472412 12.7462 0.472412 12.8052 0.472412C12.8171 0.484006 12.8407 0.484006 12.8525 0.4956C12.9589 0.530383 13.0297 0.599948 13.0888 0.692702C13.1006 0.71589 13.1243 0.739079 13.1361 0.773861C13.4552 1.31879 13.7742 1.85212 14.0933 2.39705C14.7195 3.47531 15.3576 4.54198 15.9839 5.62024C16.8938 7.16227 17.8037 8.71589 18.7135 10.2579C19.5525 11.684 20.4033 13.1217 21.2423 14.5478C21.8922 15.6608 22.5539 16.7739 23.2039 17.8869C23.7829 18.8608 24.3619 19.8463 24.9291 20.8202C24.9527 20.8666 24.9882 20.9246 25 20.971C25 21.0521 25 21.1217 25 21.2028C24.9527 21.342 24.87 21.4347 24.74 21.4927C24.7282 21.5043 24.7164 21.5043 24.7046 21.5159ZM12.7107 7.18546C11.9899 7.18546 11.2809 7.18546 10.5601 7.18546C10.5246 7.18546 10.501 7.18546 10.4655 7.18546C10.4183 7.18546 10.4065 7.20864 10.4065 7.25502C10.4065 7.26661 10.4065 7.27821 10.4065 7.2898C10.4183 7.41734 10.4183 7.55647 10.4301 7.6956C10.4419 7.82314 10.4537 7.95067 10.4537 8.07821C10.4656 8.19415 10.4656 8.31009 10.4774 8.43763C10.4892 8.64633 10.5128 8.84343 10.5246 9.05212C10.5364 9.26082 10.5483 9.48111 10.5601 9.6898C10.5601 9.78256 10.5719 9.87531 10.5837 9.96806C10.5955 10.084 10.6074 10.1999 10.6074 10.3275C10.6192 10.455 10.6192 10.5826 10.631 10.7101C10.631 10.8028 10.6428 10.8956 10.6546 10.9884C10.6664 11.1159 10.6783 11.2318 10.6783 11.3594C10.6901 11.4753 10.6901 11.6028 10.7019 11.7188C10.7019 11.8115 10.7137 11.9043 10.7255 11.9971C10.7373 12.1246 10.7492 12.2521 10.7492 12.3797C10.761 12.4956 10.761 12.6231 10.7728 12.7391C10.7728 12.8318 10.7846 12.9246 10.7964 13.0173C10.8082 13.1449 10.82 13.2724 10.82 13.3999C10.8319 13.5159 10.8319 13.6434 10.8437 13.7594C10.8437 13.8521 10.8555 13.9449 10.8673 14.0376C10.8791 14.1768 10.8909 14.3159 10.8909 14.455C10.9028 14.5594 10.9028 14.571 11.0091 14.571C12.1435 14.571 13.2661 14.571 14.4005 14.571C14.4241 14.571 14.4477 14.571 14.4714 14.571C14.5068 14.571 14.5186 14.5478 14.5305 14.5246C14.5305 14.5014 14.5305 14.4782 14.5423 14.455C14.5541 14.3391 14.5541 14.2231 14.5659 14.0956C14.5777 13.9797 14.5777 13.8637 14.5895 13.7362C14.6014 13.6202 14.6014 13.5043 14.6132 13.3999C14.625 13.2144 14.6368 13.0173 14.6604 12.8318C14.6723 12.6347 14.6841 12.4376 14.6959 12.2289C14.6959 12.1362 14.7077 12.055 14.7195 11.9623C14.7313 11.8579 14.7314 11.742 14.7432 11.6376C14.755 11.5217 14.755 11.4057 14.7668 11.2782C14.7668 11.1855 14.7786 11.1043 14.7904 11.0115C14.8022 10.8956 14.8141 10.7797 14.8141 10.6521C14.8259 10.5362 14.8259 10.4202 14.8377 10.3159C14.8495 10.2231 14.8495 10.142 14.8613 10.0492C14.8731 9.93328 14.8731 9.82893 14.885 9.71299C14.8968 9.59705 14.8968 9.48111 14.9086 9.36516C14.9086 9.28401 14.9204 9.20285 14.9322 9.11009C14.9441 8.99415 14.944 8.87821 14.9559 8.75067C14.9677 8.63473 14.9677 8.51879 14.9795 8.41444C14.9795 8.33328 14.9913 8.24053 15.0031 8.15937C15.015 8.04343 15.0149 7.92748 15.0268 7.81154C15.0386 7.67241 15.0504 7.54488 15.0504 7.40575C15.0504 7.34777 15.0622 7.3014 15.0622 7.24343C15.0622 7.20864 15.0504 7.18546 15.0031 7.18546C14.9677 7.18546 14.944 7.18546 14.9086 7.18546C14.1405 7.18546 13.4197 7.18546 12.7107 7.18546ZM12.7107 15.4405C12.0135 15.4405 11.3045 15.4405 10.6074 15.4405C10.5837 15.4405 10.5483 15.4405 10.5246 15.4405C10.4892 15.4405 10.4655 15.4637 10.4655 15.4985C10.4655 15.5333 10.4655 15.5565 10.4655 15.5913C10.4655 16.1594 10.4655 16.7275 10.4655 17.2956C10.4655 17.8869 10.4655 18.4782 10.4655 19.0579C10.4655 19.0927 10.4655 19.1275 10.4655 19.1507C10.4655 19.1855 10.4892 19.197 10.5128 19.197C10.5483 19.197 10.5837 19.197 10.6074 19.197C11.8599 19.197 13.1243 19.197 14.3769 19.197C14.5187 19.197 14.6723 19.197 14.8141 19.197C14.8377 19.197 14.8613 19.197 14.885 19.197C14.9086 19.197 14.9322 19.1739 14.9322 19.1507C14.9322 19.1159 14.9322 19.0811 14.9322 19.0579C14.9322 18.4318 14.9322 17.7941 14.9322 17.1681C14.9322 16.6463 14.9322 16.113 14.9322 15.5913C14.9322 15.5565 14.9322 15.5333 14.9322 15.4985C14.9322 15.4637 14.9086 15.4405 14.8732 15.4405C14.8495 15.4405 14.8141 15.4405 14.7904 15.4405C14.1051 15.4405 13.4079 15.4405 12.7107 15.4405Z" fill="white"/>
</svg>
