<svg width="84" height="22" viewBox="0 0 84 22" fill="none" xmlns="http://www.w3.org/2000/svg">
<path d="M42.4136 21.029C65.0723 21.029 83.4408 16.5389 83.4408 11.0001C83.4408 5.4612 65.0723 0.971069 42.4136 0.971069C19.7549 0.971069 1.38635 5.4612 1.38635 11.0001C1.38635 16.5389 19.7549 21.029 42.4136 21.029Z" stroke="white" stroke-miterlimit="10"/>
<path d="M42.4136 21.029C48.0587 21.029 52.635 16.5389 52.635 11.0001C52.635 5.4612 48.0587 0.971069 42.4136 0.971069C36.7685 0.971069 32.1923 5.4612 32.1923 11.0001C32.1923 16.5389 36.7685 21.029 42.4136 21.029Z" stroke="white" stroke-miterlimit="10"/>
<path d="M42.4136 12.8435C43.4512 12.8435 44.2924 12.0182 44.2924 11C44.2924 9.98191 43.4512 9.15656 42.4136 9.15656C41.3759 9.15656 40.5347 9.98191 40.5347 11C40.5347 12.0182 41.3759 12.8435 42.4136 12.8435Z" fill="white"/>
</svg>
