<svg width="229" height="127" viewBox="0 0 229 127" fill="none" xmlns="http://www.w3.org/2000/svg">
<path d="M114.994 125.661C149.6 125.661 177.653 97.755 177.653 63.3307C177.653 28.9064 149.6 0.999985 114.994 0.999985C80.3884 0.999985 52.3348 28.9064 52.3348 63.3307C52.3348 97.755 80.3884 125.661 114.994 125.661Z" stroke="white" stroke-width="1.51786" stroke-miterlimit="10"/>
<path d="M114.994 125.661C139.519 125.661 159.4 97.755 159.4 63.3307C159.4 28.9064 139.519 0.999985 114.994 0.999985C90.469 0.999985 70.5876 28.9064 70.5876 63.3307C70.5876 97.755 90.469 125.661 114.994 125.661Z" stroke="white" stroke-width="1.51786" stroke-miterlimit="10"/>
<path d="M114.994 125.661C129.454 125.661 141.176 97.755 141.176 63.3307C141.176 28.9064 129.454 0.999985 114.994 0.999985C100.534 0.999985 88.8121 28.9064 88.8121 63.3307C88.8121 97.755 100.534 125.661 114.994 125.661Z" stroke="white" stroke-width="1.51786" stroke-miterlimit="10"/>
<path d="M114.994 125.661C119.373 125.661 122.923 97.755 122.923 63.3307C122.923 28.9064 119.373 0.999985 114.994 0.999985C110.615 0.999985 107.066 28.9064 107.066 63.3307C107.066 97.755 110.615 125.661 114.994 125.661Z" stroke="white" stroke-width="1.51786" stroke-miterlimit="10"/>
<path d="M79.9141 11.7807H150.217" stroke="white" stroke-width="1.51786" stroke-miterlimit="10" stroke-linecap="round"/>
<path d="M60.5199 32.406H169.439" stroke="white" stroke-width="1.51786" stroke-miterlimit="10" stroke-linecap="round"/>
<path d="M60.5763 94.2265H169.382" stroke="white" stroke-width="1.51786" stroke-miterlimit="10" stroke-linecap="round"/>
<path d="M79.7428 114.852H150.217" stroke="white" stroke-width="1.51786" stroke-miterlimit="10" stroke-linecap="round"/>
<path d="M18.5544 52.3145H8.49643L0.538796 75.3887H7.34272L8.61476 70.8922H17.874L19.3235 75.3887H26.4233L18.5544 52.3145ZM10.0643 65.8632L13.2888 57.0477H13.5254L16.4836 65.8632H10.0643ZM32.9598 57.6393H38.0184C42.012 57.6393 42.6924 58.3789 42.6924 63.8516C42.6924 69.2651 42.012 70.0639 38.0184 70.0639H32.9598L32.9303 63.8516L32.9598 57.6393ZM26.7476 75.3887H38.6692C47.5143 75.3887 49.2005 73.8208 49.2005 63.8516C49.2005 53.8824 47.5143 52.3145 38.6692 52.3145H26.7476V75.3887ZM56.4866 57.6393H61.5451C65.5387 57.6393 66.2191 58.3789 66.2191 63.8516C66.2191 69.2651 65.5387 70.0639 61.5451 70.0639H56.4866L56.457 63.8516L56.4866 57.6393ZM50.2743 75.3887H62.1959C71.041 75.3887 72.7272 73.8208 72.7272 63.8516C72.7272 53.8824 71.041 52.3145 62.1959 52.3145H50.2743V75.3887ZM87.7047 75.3887H93.917V57.3435H101.046V52.3145H80.6345V57.3435H87.7047V75.3887ZM113.66 56.9885C118.778 56.9885 119.724 58.0535 119.724 63.8516C119.724 69.6497 118.778 70.7147 113.66 70.7147C108.542 70.7147 107.596 69.6497 107.596 63.8516C107.596 58.0535 108.542 56.9885 113.66 56.9885ZM101.087 63.8516C101.087 73.88 103.069 75.7437 113.66 75.7437C124.25 75.7437 126.232 73.88 126.232 63.8516C126.232 53.8232 124.25 51.9595 113.66 51.9595C103.069 51.9595 101.087 53.8232 101.087 63.8516ZM159.582 65.5969H153.074C153.133 69.916 152.216 70.7147 147.276 70.7147C142.306 70.7147 141.389 69.6497 141.389 63.8516C141.389 58.0535 142.306 56.9885 147.276 56.9885C152.216 56.9885 153.133 57.7872 153.074 62.0766H159.582C159.641 53.5569 157.718 51.9595 147.276 51.9595C136.833 51.9595 134.881 53.8232 134.881 63.8516C134.881 73.88 136.833 75.7437 147.276 75.7437C157.718 75.7437 159.641 74.1462 159.582 65.5969ZM177.619 52.3145H167.561L159.604 75.3887H166.407L167.68 70.8922H176.939L178.388 75.3887H185.488L177.619 52.3145ZM169.129 65.8632L172.354 57.0477H172.59L175.548 65.8632H169.129ZM199.598 52.3145H185.812V75.3887H192.025V67.8452H198.119C200.101 67.8452 200.722 68.496 200.722 71.0992C200.722 73.17 200.84 74.4125 201.343 75.3887H208.147V75.1224C207.2 74.0575 206.964 72.0459 206.964 69.7089C206.964 66.8986 205.632 65.9815 203.029 65.3899C206.165 64.6799 207.289 63.3783 207.289 60.6271V59.7396C207.289 53.4682 206.135 52.3145 199.598 52.3145ZM192.025 63.112V57.3435H198C200.603 57.3435 201.077 57.8464 201.077 60.1834C201.077 62.6091 200.603 63.112 198 63.112H192.025ZM215.114 75.3887H221.326V57.3435H228.455V52.3145H208.044V57.3435H215.114V75.3887Z" fill="black"/>
<path d="M18.5544 52.3145L19.3958 52.0276L19.1905 51.4256H18.5544V52.3145ZM8.49643 52.3145V51.4256H7.86269L7.65607 52.0247L8.49643 52.3145ZM0.538796 75.3887L-0.30156 75.0989L-0.708075 76.2776H0.538796V75.3887ZM7.34272 75.3887V76.2776H8.01506L8.19808 75.6306L7.34272 75.3887ZM8.61476 70.8922V70.0032H7.94242L7.7594 70.6502L8.61476 70.8922ZM17.874 70.8922L18.7201 70.6194L18.5214 70.0032H17.874V70.8922ZM19.3235 75.3887L18.4775 75.6614L18.6761 76.2776H19.3235V75.3887ZM26.4233 75.3887V76.2776H27.6656L27.2646 75.1018L26.4233 75.3887ZM10.0643 65.8632L9.22946 65.5578L8.79262 66.7521H10.0643V65.8632ZM13.2888 57.0477V56.1587H12.6674L12.4539 56.7423L13.2888 57.0477ZM13.5254 57.0477L14.3682 56.7649L14.1648 56.1587H13.5254V57.0477ZM16.4836 65.8632V66.7521H17.7196L17.3264 65.5804L16.4836 65.8632ZM18.5544 51.4256H8.49643V53.2034H18.5544V51.4256ZM7.65607 52.0247L-0.30156 75.0989L1.37915 75.6785L9.33679 52.6043L7.65607 52.0247ZM0.538796 76.2776H7.34272V74.4997H0.538796V76.2776ZM8.19808 75.6306L9.47012 71.1341L7.7594 70.6502L6.48736 75.1467L8.19808 75.6306ZM8.61476 71.7811H17.874V70.0032H8.61476V71.7811ZM17.028 71.1649L18.4775 75.6614L20.1696 75.1159L18.7201 70.6194L17.028 71.1649ZM19.3235 76.2776H26.4233V74.4997H19.3235V76.2776ZM27.2646 75.1018L19.3958 52.0276L17.7131 52.6014L25.5819 75.6756L27.2646 75.1018ZM10.8991 66.1685L14.1236 57.353L12.4539 56.7423L9.22946 65.5578L10.8991 66.1685ZM13.2888 57.9366H13.5254V56.1587H13.2888V57.9366ZM12.6827 57.3305L15.6409 66.146L17.3264 65.5804L14.3682 56.7649L12.6827 57.3305ZM16.4836 64.9743H10.0643V66.7521H16.4836V64.9743ZM32.9598 57.6393V56.7504H32.0751L32.0709 57.6351L32.9598 57.6393ZM32.9598 70.0639L32.0709 70.0681L32.0751 70.9528H32.9598V70.0639ZM32.9303 63.8516L32.0413 63.8473L32.0413 63.8558L32.9303 63.8516ZM26.7476 75.3887H25.8586V76.2776H26.7476V75.3887ZM26.7476 52.3145V51.4256H25.8586V52.3145H26.7476ZM32.9598 58.5282H38.0184V56.7504H32.9598V58.5282ZM38.0184 58.5282C39.0074 58.5282 39.7065 58.5761 40.2199 58.7032C40.7052 58.8234 40.9673 59 41.1488 59.2356C41.3504 59.4974 41.5283 59.9305 41.6447 60.7043C41.7604 61.4741 41.8035 62.4912 41.8035 63.8516H43.5813C43.5813 62.4756 43.5393 61.3479 43.4027 60.4399C43.2668 59.5359 43.0249 58.758 42.5573 58.1507C42.0694 57.5173 41.4126 57.167 40.6472 56.9775C39.9098 56.7949 39.0262 56.7504 38.0184 56.7504V58.5282ZM41.8035 63.8516C41.8035 65.1969 41.7605 66.2065 41.6447 66.9734C41.5284 67.7441 41.3505 68.1812 41.1465 68.4483C40.7769 68.9323 40.0718 69.1749 38.0184 69.1749V70.9528C39.9586 70.9528 41.5905 70.7961 42.5595 69.5273C43.0248 68.918 43.2666 68.1404 43.4027 67.2387C43.5393 66.3334 43.5813 65.2131 43.5813 63.8516H41.8035ZM38.0184 69.1749H32.9598V70.9528H38.0184V69.1749ZM33.8488 70.0596L33.8192 63.8474L32.0413 63.8558L32.0709 70.0681L33.8488 70.0596ZM33.8192 63.8558L33.8488 57.6435L32.0709 57.6351L32.0413 63.8474L33.8192 63.8558ZM26.7476 76.2776H38.6692V74.4997H26.7476V76.2776ZM38.6692 76.2776C40.8925 76.2776 42.735 76.1805 44.2339 75.8568C45.7473 75.53 46.9755 74.9585 47.902 73.9648C48.822 72.9779 49.3583 71.6665 49.6719 70.027C49.9846 68.3927 50.0894 66.357 50.0894 63.8516H48.3116C48.3116 66.3308 48.2057 68.2295 47.9257 69.693C47.6468 71.1514 47.2087 72.1012 46.6016 72.7524C46.0009 73.3968 45.149 73.8404 43.8586 74.119C42.5537 74.4008 40.8685 74.4997 38.6692 74.4997V76.2776ZM50.0894 63.8516C50.0894 61.3462 49.9846 59.3104 49.6719 57.6761C49.3583 56.0367 48.822 54.7253 47.902 53.7384C46.9755 52.7446 45.7473 52.1732 44.2339 51.8463C42.735 51.5226 40.8925 51.4256 38.6692 51.4256V53.2034C40.8685 53.2034 42.5537 53.3023 43.8586 53.5841C45.149 53.8628 46.0009 54.3064 46.6016 54.9507C47.2087 55.602 47.6468 56.5518 47.9257 58.0102C48.2057 59.4737 48.3116 61.3724 48.3116 63.8516H50.0894ZM38.6692 51.4256H26.7476V53.2034H38.6692V51.4256ZM25.8586 52.3145V75.3887H27.6365V52.3145H25.8586ZM56.4865 57.6393V56.7504H55.6018L55.5976 57.6351L56.4865 57.6393ZM56.4865 70.0639L55.5976 70.0681L55.6018 70.9528H56.4865V70.0639ZM56.457 63.8516L55.568 63.8473L55.5681 63.8558L56.457 63.8516ZM50.2743 75.3887H49.3853V76.2776H50.2743V75.3887ZM50.2743 52.3145V51.4256H49.3853V52.3145H50.2743ZM56.4865 58.5282H61.5451V56.7504H56.4865V58.5282ZM61.5451 58.5282C62.5341 58.5282 63.2332 58.5761 63.7466 58.7032C64.2319 58.8234 64.494 59 64.6755 59.2356C64.8771 59.4974 65.055 59.9305 65.1714 60.7043C65.2872 61.4741 65.3302 62.4912 65.3302 63.8516H67.108C67.108 62.4756 67.066 61.3479 66.9295 60.4399C66.7935 59.5359 66.5517 58.758 66.084 58.1507C65.5961 57.5173 64.9394 57.167 64.1739 56.9775C63.4365 56.7949 62.5529 56.7504 61.5451 56.7504V58.5282ZM65.3302 63.8516C65.3302 65.1969 65.2872 66.2065 65.1714 66.9734C65.0551 67.7441 64.8772 68.1812 64.6733 68.4483C64.3036 68.9323 63.5985 69.1749 61.5451 69.1749V70.9528C63.4853 70.9528 65.1172 70.7961 66.0862 69.5273C66.5516 68.918 66.7933 68.1404 66.9294 67.2387C67.066 66.3334 67.108 65.2131 67.108 63.8516H65.3302ZM61.5451 69.1749H56.4865V70.9528H61.5451V69.1749ZM57.3755 70.0596L57.3459 63.8474L55.5681 63.8558L55.5976 70.0681L57.3755 70.0596ZM57.3459 63.8558L57.3755 57.6435L55.5976 57.6351L55.5681 63.8474L57.3459 63.8558ZM50.2743 76.2776H62.1959V74.4997H50.2743V76.2776ZM62.1959 76.2776C64.4192 76.2776 66.2617 76.1805 67.7606 75.8568C69.274 75.53 70.5022 74.9585 71.4287 73.9648C72.3487 72.9779 72.885 71.6665 73.1986 70.027C73.5113 68.3927 73.6161 66.357 73.6161 63.8516H71.8383C71.8383 66.3308 71.7324 68.2295 71.4525 69.693C71.1735 71.1514 70.7354 72.1012 70.1283 72.7524C69.5276 73.3968 68.6758 73.8404 67.3853 74.119C66.0804 74.4008 64.3952 74.4997 62.1959 74.4997V76.2776ZM73.6161 63.8516C73.6161 61.3462 73.5113 59.3104 73.1986 57.6761C72.885 56.0367 72.3487 54.7253 71.4287 53.7384C70.5022 52.7446 69.274 52.1732 67.7606 51.8463C66.2617 51.5226 64.4192 51.4256 62.1959 51.4256V53.2034C64.3952 53.2034 66.0804 53.3023 67.3853 53.5841C68.6758 53.8628 69.5276 54.3064 70.1283 54.9507C70.7354 55.602 71.1735 56.5518 71.4525 58.0102C71.7324 59.4737 71.8383 61.3724 71.8383 63.8516H73.6161ZM62.1959 51.4256H50.2743V53.2034H62.1959V51.4256ZM49.3853 52.3145V75.3887H51.1632V52.3145H49.3853ZM87.7047 75.3887H86.8158V76.2776H87.7047V75.3887ZM93.917 75.3887V76.2776H94.8059V75.3887H93.917ZM93.917 57.3435V56.4546H93.028V57.3435H93.917ZM101.046 57.3435V58.2324H101.935V57.3435H101.046ZM101.046 52.3145H101.935V51.4256H101.046V52.3145ZM80.6345 52.3145V51.4256H79.7456V52.3145H80.6345ZM80.6345 57.3435H79.7456V58.2324H80.6345V57.3435ZM87.7047 57.3435H88.5936V56.4546H87.7047V57.3435ZM87.7047 76.2776H93.917V74.4997H87.7047V76.2776ZM94.8059 75.3887V57.3435H93.028V75.3887H94.8059ZM93.917 58.2324H101.046V56.4546H93.917V58.2324ZM101.935 57.3435V52.3145H100.157V57.3435H101.935ZM101.046 51.4256H80.6345V53.2034H101.046V51.4256ZM79.7456 52.3145V57.3435H81.5234V52.3145H79.7456ZM80.6345 58.2324H87.7047V56.4546H80.6345V58.2324ZM86.8158 57.3435V75.3887H88.5936V57.3435H86.8158ZM113.66 57.8774C114.923 57.8774 115.857 57.9446 116.563 58.1107C117.251 58.2729 117.664 58.516 117.945 58.8346C118.236 59.1636 118.469 59.6651 118.622 60.4943C118.776 61.3272 118.835 62.4149 118.835 63.8516H120.613C120.613 62.3892 120.554 61.1695 120.371 60.172C120.186 59.1707 119.863 58.3189 119.277 57.6569C118.683 56.9845 117.899 56.599 116.97 56.3802C116.059 56.1655 114.956 56.0996 113.66 56.0996V57.8774ZM118.835 63.8516C118.835 65.2883 118.776 66.376 118.622 67.2089C118.469 68.038 118.236 68.5395 117.945 68.8686C117.664 69.1872 117.251 69.4303 116.563 69.5924C115.857 69.7585 114.923 69.8257 113.66 69.8257V71.6036C114.956 71.6036 116.059 71.5377 116.97 71.3229C117.899 71.1042 118.683 70.7187 119.277 70.0463C119.863 69.3843 120.186 68.5324 120.371 67.5312C120.554 66.5336 120.613 65.3139 120.613 63.8516H118.835ZM113.66 69.8257C112.397 69.8257 111.462 69.7585 110.757 69.5924C110.069 69.4303 109.656 69.1872 109.374 68.8686C109.084 68.5395 108.85 68.038 108.698 67.2089C108.544 66.376 108.484 65.2883 108.484 63.8516H106.707C106.707 65.3139 106.765 66.5336 106.949 67.5312C107.134 68.5324 107.457 69.3843 108.043 70.0463C108.637 70.7187 109.421 71.1042 110.349 71.3229C111.261 71.5377 112.364 71.6036 113.66 71.6036V69.8257ZM108.484 63.8516C108.484 62.4149 108.544 61.3272 108.698 60.4943C108.85 59.6651 109.084 59.1636 109.374 58.8346C109.656 58.516 110.069 58.2729 110.757 58.1107C111.462 57.9446 112.397 57.8774 113.66 57.8774V56.0996C112.364 56.0996 111.261 56.1655 110.349 56.3802C109.421 56.599 108.637 56.9845 108.043 57.6569C107.457 58.3189 107.134 59.1707 106.949 60.172C106.765 61.1695 106.707 62.3892 106.707 63.8516H108.484ZM100.199 63.8516C100.199 66.3748 100.322 68.4504 100.695 70.1328C101.07 71.8281 101.713 73.1845 102.792 74.2043C103.866 75.2197 105.285 75.8176 107.055 76.1678C108.818 76.5166 110.998 76.6326 113.66 76.6326V74.8547C111.026 74.8547 108.987 74.7378 107.4 74.4237C105.82 74.1111 104.758 73.6163 104.013 72.9122C103.273 72.2125 102.757 71.2227 102.43 69.7481C102.101 68.2606 101.976 66.3425 101.976 63.8516H100.199ZM113.66 76.6326C116.322 76.6326 118.502 76.5166 120.265 76.1678C122.035 75.8176 123.454 75.2197 124.528 74.2043C125.607 73.1845 126.249 71.8281 126.625 70.1328C126.998 68.4504 127.121 66.3748 127.121 63.8516H125.343C125.343 66.3425 125.219 68.2606 124.889 69.7481C124.563 71.2227 124.047 72.2125 123.307 72.9122C122.562 73.6163 121.5 74.1111 119.92 74.4237C118.332 74.7378 116.293 74.8547 113.66 74.8547V76.6326ZM127.121 63.8516C127.121 61.3283 126.998 59.2528 126.625 57.5704C126.249 55.875 125.607 54.5186 124.528 53.4989C123.454 52.4834 122.035 51.8855 120.265 51.5354C118.502 51.1866 116.322 51.0706 113.66 51.0706V52.8484C116.293 52.8484 118.332 52.9654 119.92 53.2794C121.5 53.5921 122.562 54.0869 123.307 54.7909C124.047 55.4906 124.563 56.4805 124.889 57.9551C125.219 59.4426 125.343 61.3606 125.343 63.8516H127.121ZM113.66 51.0706C110.998 51.0706 108.818 51.1866 107.055 51.5354C105.285 51.8855 103.866 52.4834 102.792 53.4989C101.713 54.5186 101.07 55.875 100.695 57.5704C100.322 59.2528 100.199 61.3283 100.199 63.8516H101.976C101.976 61.3606 102.101 59.4426 102.43 57.9551C102.757 56.4805 103.273 55.4906 104.013 54.7909C104.758 54.0869 105.82 53.5921 107.4 53.2794C108.987 52.9654 111.026 52.8484 113.66 52.8484V51.0706ZM159.582 65.5969L160.471 65.5908L160.465 64.708H159.582V65.5969ZM153.074 65.5969V64.708H152.173L152.185 65.6091L153.074 65.5969ZM153.074 62.0766L152.185 62.0644L152.173 62.9656H153.074V62.0766ZM159.582 62.0766V62.9656H160.465L160.471 62.0828L159.582 62.0766ZM159.582 64.708H153.074V66.4859H159.582V64.708ZM152.185 65.6091C152.2 66.6713 152.152 67.4454 152.021 68.0219C151.894 68.5806 151.702 68.8968 151.462 69.1085C151.21 69.3306 150.81 69.521 150.115 69.6479C149.416 69.7754 148.498 69.8257 147.276 69.8257V71.6036C148.524 71.6036 149.573 71.5541 150.434 71.3969C151.298 71.2391 152.05 70.9598 152.637 70.4424C153.236 69.9146 153.572 69.2212 153.755 68.4154C153.933 67.6274 153.978 66.6821 153.963 65.5848L152.185 65.6091ZM147.276 69.8257C144.748 69.8257 143.696 69.523 143.143 68.8785C142.861 68.5498 142.634 68.0463 142.485 67.2136C142.336 66.3784 142.278 65.2888 142.278 63.8516H140.5C140.5 65.3135 140.557 66.5312 140.735 67.5265C140.913 68.5241 141.226 69.3741 141.794 70.0363C142.942 71.3739 144.834 71.6036 147.276 71.6036V69.8257ZM142.278 63.8516C142.278 62.4144 142.336 61.3248 142.485 60.4896C142.634 59.6568 142.861 59.1534 143.143 58.8247C143.696 58.1802 144.748 57.8774 147.276 57.8774V56.0996C144.834 56.0996 142.942 56.3293 141.794 57.6668C141.226 58.3291 140.913 59.179 140.735 60.1767C140.557 61.1719 140.5 62.3897 140.5 63.8516H142.278ZM147.276 57.8774C148.498 57.8774 149.417 57.9278 150.115 58.0549C150.811 58.1815 151.211 58.3713 151.464 58.5925C151.704 58.8028 151.895 59.1163 152.021 59.6699C152.152 60.2417 152.2 61.0098 152.185 62.0644L153.963 62.0889C153.978 60.9988 153.933 60.0585 153.754 59.2741C153.571 58.4716 153.235 57.7811 152.636 57.2556C152.049 56.7409 151.297 56.4629 150.433 56.3058C149.572 56.1491 148.524 56.0996 147.276 56.0996V57.8774ZM153.074 62.9656H159.582V61.1877H153.074V62.9656ZM160.471 62.0828C160.5 57.8597 160.073 54.8994 157.932 53.1369C156.876 52.2674 155.488 51.7623 153.763 51.4661C152.038 51.17 149.899 51.0706 147.276 51.0706V52.8484C149.874 52.8484 151.891 52.9487 153.462 53.2183C155.033 53.4879 156.08 53.9147 156.802 54.5095C158.219 55.6756 158.723 57.7739 158.693 62.0705L160.471 62.0828ZM147.276 51.0706C144.651 51.0706 142.499 51.1866 140.759 51.5358C139.011 51.8867 137.608 52.486 136.547 53.5032C135.483 54.5238 134.85 55.8798 134.481 57.573C134.113 59.2542 133.992 61.3286 133.992 63.8516H135.77C135.77 61.3603 135.892 59.4412 136.218 57.9524C136.54 56.4757 137.049 55.4854 137.778 54.7866C138.51 54.0844 139.554 53.591 141.109 53.279C142.671 52.9654 144.679 52.8484 147.276 52.8484V51.0706ZM133.992 63.8516C133.992 66.3745 134.113 68.449 134.481 70.1301C134.85 71.8234 135.483 73.1793 136.547 74.1999C137.608 75.2172 139.011 75.8165 140.759 76.1673C142.499 76.5166 144.651 76.6326 147.276 76.6326V74.8547C144.679 74.8547 142.671 74.7378 141.109 74.4242C139.554 74.1122 138.51 73.6188 137.778 72.9166C137.049 72.2177 136.54 71.2274 136.218 69.7508C135.892 68.262 135.77 66.3428 135.77 63.8516H133.992ZM147.276 76.6326C149.898 76.6326 152.038 76.5331 153.763 76.2365C155.488 75.9399 156.877 75.4337 157.933 74.5618C160.073 72.7955 160.5 69.8281 160.471 65.5908L158.693 65.6031C158.723 69.915 158.218 72.021 156.801 73.1907C156.079 73.7869 155.032 74.2144 153.462 74.4844C151.891 74.7545 149.874 74.8547 147.276 74.8547V76.6326ZM177.619 52.3145L178.461 52.0276L178.255 51.4256H177.619V52.3145ZM167.561 52.3145V51.4256H166.927L166.721 52.0247L167.561 52.3145ZM159.604 75.3887L158.763 75.0989L158.357 76.2776H159.604V75.3887ZM166.407 75.3887V76.2776H167.08L167.263 75.6306L166.407 75.3887ZM167.68 70.8922V70.0032H167.007L166.824 70.6502L167.68 70.8922ZM176.939 70.8922L177.785 70.6194L177.586 70.0032H176.939V70.8922ZM178.388 75.3887L177.542 75.6614L177.741 76.2776H178.388V75.3887ZM185.488 75.3887V76.2776H186.73L186.329 75.1018L185.488 75.3887ZM169.129 65.8632L168.294 65.5578L167.857 66.7521H169.129V65.8632ZM172.354 57.0477V56.1587H171.732L171.519 56.7423L172.354 57.0477ZM172.59 57.0477L173.433 56.7649L173.23 56.1587H172.59V57.0477ZM175.548 65.8632V66.7521H176.784L176.391 65.5804L175.548 65.8632ZM177.619 51.4256H167.561V53.2034H177.619V51.4256ZM166.721 52.0247L158.763 75.0989L160.444 75.6785L168.402 52.6043L166.721 52.0247ZM159.604 76.2776H166.407V74.4997H159.604V76.2776ZM167.263 75.6306L168.535 71.1341L166.824 70.6502L165.552 75.1467L167.263 75.6306ZM167.68 71.7811H176.939V70.0032H167.68V71.7811ZM176.093 71.1649L177.542 75.6614L179.234 75.1159L177.785 70.6194L176.093 71.1649ZM178.388 76.2776H185.488V74.4997H178.388V76.2776ZM186.329 75.1018L178.461 52.0276L176.778 52.6014L184.647 75.6756L186.329 75.1018ZM169.964 66.1685L173.188 57.353L171.519 56.7423L168.294 65.5578L169.964 66.1685ZM172.354 57.9366H172.59V56.1587H172.354V57.9366ZM171.747 57.3305L174.706 66.146L176.391 65.5804L173.433 56.7649L171.747 57.3305ZM175.548 64.9743H169.129V66.7521H175.548V64.9743ZM185.812 52.3145V51.4256H184.923V52.3145H185.812ZM185.812 75.3887H184.923V76.2776H185.812V75.3887ZM192.025 75.3887V76.2776H192.914V75.3887H192.025ZM192.025 67.8452V66.9563H191.136V67.8452H192.025ZM201.343 75.3887L200.553 75.7958L200.801 76.2776H201.343V75.3887ZM208.147 75.3887V76.2776H209.036V75.3887H208.147ZM208.147 75.1224H209.036V74.7845L208.811 74.5319L208.147 75.1224ZM203.029 65.3899L202.833 64.5229L202.832 66.2567L203.029 65.3899ZM192.025 63.112H191.136V64.001H192.025V63.112ZM192.025 57.3435V56.4546H191.136V57.3435H192.025ZM199.598 51.4256H185.812V53.2034H199.598V51.4256ZM184.923 52.3145V75.3887H186.701V52.3145H184.923ZM185.812 76.2776H192.025V74.4997H185.812V76.2776ZM192.914 75.3887V67.8452H191.136V75.3887H192.914ZM192.025 68.7341H198.119V66.9563H192.025V68.7341ZM198.119 68.7341C199.067 68.7341 199.347 68.9034 199.478 69.062C199.66 69.2822 199.833 69.7955 199.833 71.0992H201.611C201.611 69.7997 201.473 68.686 200.849 67.93C200.174 67.1124 199.153 66.9563 198.119 66.9563V68.7341ZM199.833 71.0992C199.833 73.1562 199.939 74.6047 200.553 75.7958L202.133 74.9816C201.741 74.2202 201.611 73.1838 201.611 71.0992H199.833ZM201.343 76.2776H208.147V74.4997H201.343V76.2776ZM209.036 75.3887V75.1224H207.258V75.3887H209.036ZM208.811 74.5319C208.491 74.1718 208.238 73.5841 208.073 72.7257C207.911 71.8782 207.853 70.8555 207.853 69.7089H206.075C206.075 70.8992 206.134 72.0508 206.327 73.0596C206.518 74.0575 206.856 75.0081 207.483 75.713L208.811 74.5319ZM207.853 69.7089C207.853 68.1625 207.483 66.9654 206.599 66.087C205.755 65.247 204.56 64.8262 203.226 64.523L202.832 66.2567C204.102 66.5452 204.874 66.8787 205.346 67.3477C205.779 67.7784 206.075 68.445 206.075 69.7089H207.853ZM203.226 66.2568C204.862 65.8863 206.144 65.3279 207 64.3641C207.874 63.3798 208.178 62.1167 208.178 60.6271H206.4C206.4 61.8887 206.142 62.652 205.67 63.1838C205.18 63.7361 204.332 64.1834 202.833 64.5229L203.226 66.2568ZM208.178 60.6271V59.7396H206.4V60.6271H208.178ZM208.178 59.7396C208.178 58.1578 208.107 56.8335 207.876 55.749C207.643 54.6529 207.235 53.7364 206.514 53.0372C205.796 52.3406 204.857 51.9468 203.732 51.7212C202.616 51.4971 201.246 51.4256 199.598 51.4256V53.2034C201.218 53.2034 202.444 53.2761 203.383 53.4643C204.313 53.651 204.889 53.9376 205.276 54.3134C205.661 54.6865 205.949 55.2343 206.137 56.1184C206.327 57.0141 206.4 58.1858 206.4 59.7396H208.178ZM192.914 63.112V57.3435H191.136V63.112H192.914ZM192.025 58.2324H198V56.4546H192.025V58.2324ZM198 58.2324C198.634 58.2324 199.08 58.264 199.402 58.3296C199.717 58.3938 199.845 58.4776 199.905 58.5342C199.96 58.5858 200.036 58.6871 200.095 58.9499C200.158 59.2266 200.188 59.6161 200.188 60.1834H201.966C201.966 59.5822 201.937 59.0324 201.829 58.5575C201.719 58.0687 201.513 57.6062 201.124 57.2399C200.74 56.8786 200.262 56.6906 199.757 56.5876C199.257 56.4858 198.668 56.4546 198 56.4546V58.2324ZM200.188 60.1834C200.188 60.7738 200.158 61.1822 200.094 61.4741C200.033 61.7538 199.954 61.8634 199.897 61.9182C199.837 61.9762 199.711 62.0604 199.399 62.1251C199.079 62.1914 198.634 62.2231 198 62.2231V64.001C198.668 64.001 199.258 63.9698 199.76 63.866C200.268 63.7606 200.749 63.5675 201.133 63.1965C201.52 62.8224 201.722 62.3514 201.83 61.8546C201.937 61.3699 201.966 60.8059 201.966 60.1834H200.188ZM198 62.2231H192.025V64.001H198V62.2231ZM215.114 75.3887H214.225V76.2776H215.114V75.3887ZM221.326 75.3887V76.2776H222.215V75.3887H221.326ZM221.326 57.3435V56.4546H220.437V57.3435H221.326ZM228.455 57.3435V58.2324H229.344V57.3435H228.455ZM228.455 52.3145H229.344V51.4256H228.455V52.3145ZM208.044 52.3145V51.4256H207.155V52.3145H208.044ZM208.044 57.3435H207.155V58.2324H208.044V57.3435ZM215.114 57.3435H216.003V56.4546H215.114V57.3435ZM215.114 76.2776H221.326V74.4997H215.114V76.2776ZM222.215 75.3887V57.3435H220.437V75.3887H222.215ZM221.326 58.2324H228.455V56.4546H221.326V58.2324ZM229.344 57.3435V52.3145H227.567V57.3435H229.344ZM228.455 51.4256H208.044V53.2034H228.455V51.4256ZM207.155 52.3145V57.3435H208.933V52.3145H207.155ZM208.044 58.2324H215.114V56.4546H208.044V58.2324ZM214.225 57.3435V75.3887H216.003V57.3435H214.225Z" fill="white"/>
</svg>
